<svg width="25" height="23" viewBox="0 0 25 23" fill="none" xmlns="http://www.w3.org/2000/svg">
<path d="M13.492 12C14.2877 12 15.0507 12.3161 15.6133 12.8787C16.1759 13.4413 16.492 14.2044 16.492 15L16.49 16.497C16.696 20.17 13.867 22.002 8.62 22.002C3.391 22.002 0.5 20.194 0.5 16.549V15C0.5 14.2044 0.816071 13.4413 1.37868 12.8787C1.94129 12.3161 2.70435 12 3.5 12H13.492ZM21.492 12C22.2876 12 23.0507 12.3161 23.6133 12.8787C24.1759 13.4413 24.492 14.2044 24.492 15V16.053C24.672 19.348 22.172 21 17.603 21C16.983 21 16.4 20.97 15.855 20.91C16.4318 20.3839 16.8741 19.7272 17.145 18.995L17.603 19C21.172 19 22.598 18.057 22.493 16.108V15C22.493 14.7348 22.3876 14.4804 22.2001 14.2929C22.0126 14.1054 21.7582 14 21.493 14H17.366C17.1654 13.2253 16.7369 12.5286 16.136 12H21.493H21.492ZM13.492 14H3.5C3.23478 14 2.98043 14.1054 2.79289 14.2929C2.60536 14.4804 2.5 14.7348 2.5 15V16.55C2.5 18.841 4.356 20.002 8.62 20.002C12.868 20.002 14.62 18.867 14.492 16.552V15C14.492 14.7348 14.3866 14.4804 14.1991 14.2929C14.0116 14.1054 13.7572 14 13.492 14ZM8.5 0C9.82635 0 11.0984 0.526889 12.0362 1.46476C12.9741 2.40263 13.501 3.67465 13.501 5.001C13.501 6.32735 12.9741 7.59937 12.0362 8.53724C11.0984 9.47511 9.82635 10.002 8.5 10.002C7.17365 10.002 5.90163 9.47511 4.96376 8.53724C4.02589 7.59937 3.499 6.32735 3.499 5.001C3.499 3.67465 4.02589 2.40263 4.96376 1.46476C5.90163 0.526889 7.17365 0 8.5 0ZM18.5 2C19.5609 2 20.5783 2.42143 21.3284 3.17157C22.0786 3.92172 22.5 4.93913 22.5 6C22.5 7.06087 22.0786 8.07828 21.3284 8.82843C20.5783 9.57857 19.5609 10 18.5 10C17.4391 10 16.4217 9.57857 15.6716 8.82843C14.9214 8.07828 14.5 7.06087 14.5 6C14.5 4.93913 14.9214 3.92172 15.6716 3.17157C16.4217 2.42143 17.4391 2 18.5 2ZM8.5 2C8.1059 2 7.71567 2.07762 7.35157 2.22844C6.98747 2.37925 6.65664 2.6003 6.37797 2.87897C6.0993 3.15764 5.87825 3.48847 5.72744 3.85257C5.57662 4.21667 5.499 4.6069 5.499 5.001C5.499 5.3951 5.57662 5.78534 5.72744 6.14943C5.87825 6.51353 6.0993 6.84436 6.37797 7.12303C6.65664 7.4017 6.98747 7.62275 7.35157 7.77356C7.71567 7.92438 8.1059 8.002 8.5 8.002C9.29591 8.002 10.0592 7.68582 10.622 7.12303C11.1848 6.56023 11.501 5.79692 11.501 5.001C11.501 4.20509 11.1848 3.44177 10.622 2.87897C10.0592 2.31618 9.29591 2 8.5 2ZM18.5 4C17.9696 4 17.4609 4.21071 17.0858 4.58579C16.7107 4.96086 16.5 5.46957 16.5 6C16.5 6.53043 16.7107 7.03914 17.0858 7.41421C17.4609 7.78929 17.9696 8 18.5 8C19.0304 8 19.5391 7.78929 19.9142 7.41421C20.2893 7.03914 20.5 6.53043 20.5 6C20.5 5.46957 20.2893 4.96086 19.9142 4.58579C19.5391 4.21071 19.0304 4 18.5 4Z" fill="#009899"/>
</svg>
