<svg width="27" height="31" viewBox="0 0 27 31" fill="none" xmlns="http://www.w3.org/2000/svg">
<path d="M23.125 14.1875H3.875C2.35622 14.1875 1.125 15.4187 1.125 16.9375V26.5625C1.125 28.0813 2.35622 29.3125 3.875 29.3125H23.125C24.6438 29.3125 25.875 28.0813 25.875 26.5625V16.9375C25.875 15.4187 24.6438 14.1875 23.125 14.1875Z" stroke="white" stroke-width="2" stroke-linecap="round" stroke-linejoin="round"/>
<path d="M6.625 14.1875V8.6875C6.625 6.86414 7.34933 5.11545 8.63864 3.82614C9.92795 2.53683 11.6766 1.8125 13.5 1.8125C15.3234 1.8125 17.072 2.53683 18.3614 3.82614C19.6507 5.11545 20.375 6.86414 20.375 8.6875V14.1875" stroke="white" stroke-width="2" stroke-linecap="round" stroke-linejoin="round"/>
</svg>
