<svg width="34" height="30" viewBox="0 0 34 30" fill="none" xmlns="http://www.w3.org/2000/svg">
<path d="M25.313 10.5276H28.0206C28.3796 10.5276 28.724 10.6549 28.9778 10.8815C29.2317 11.1081 29.3744 11.4155 29.3744 11.736V26.236C29.3744 26.5564 29.2317 26.8638 28.9778 27.0904C28.724 27.317 28.3796 27.4443 28.0206 27.4443H6.35978C6.00073 27.4443 5.65639 27.317 5.4025 27.0904C5.14861 26.8638 5.00598 26.5564 5.00598 26.236V11.736C5.00598 11.4155 5.14861 11.1081 5.4025 10.8815C5.65639 10.6549 6.00073 10.5276 6.35978 10.5276H9.06738V9.31929C9.06738 7.39647 9.92317 5.5524 11.4465 4.19277C12.9698 2.83313 15.0359 2.06929 17.1902 2.06929C19.3445 2.06929 21.4105 2.83313 22.9339 4.19277C24.4572 5.5524 25.313 7.39647 25.313 9.31929V10.5276ZM7.71358 12.9443V25.0276H26.6668V12.9443H7.71358ZM15.8364 17.7776H18.544V20.1943H15.8364V17.7776ZM10.4212 17.7776H13.1288V20.1943H10.4212V17.7776ZM21.2516 17.7776H23.9592V20.1943H21.2516V17.7776ZM22.6054 10.5276V9.31929C22.6054 8.03741 22.0348 6.80803 21.0193 5.90161C20.0037 4.99518 18.6264 4.48596 17.1902 4.48596C15.754 4.48596 14.3766 4.99518 13.361 5.90161C12.3455 6.80803 11.775 8.03741 11.775 9.31929V10.5276H22.6054Z" fill="#009899"/>
</svg>
