<svg width="23" height="22" viewBox="0 0 23 22" fill="none" xmlns="http://www.w3.org/2000/svg">
<path d="M10.054 5.24003L6.67099 1.33503C6.28099 0.88503 5.56599 0.88703 5.11299 1.34103L2.33099 4.12803C1.50299 4.95703 1.26599 6.18803 1.74499 7.17503C4.60661 13.1 9.38503 17.8851 15.306 20.755C16.292 21.234 17.522 20.997 18.35 20.168L21.158 17.355C21.613 16.9 21.614 16.181 21.16 15.791L17.24 12.426C16.83 12.074 16.193 12.12 15.782 12.532L14.418 13.898C14.3482 13.9712 14.2562 14.0195 14.1563 14.0354C14.0564 14.0513 13.9541 14.0339 13.865 13.986C11.6354 12.7021 9.78598 10.8503 8.50499 8.61903C8.45702 8.52978 8.43964 8.42726 8.45554 8.32719C8.47144 8.22711 8.51972 8.13502 8.59299 8.06503L9.95299 6.70403C10.365 6.29003 10.41 5.65003 10.054 5.23903V5.24003Z" stroke="#009899" stroke-width="2" stroke-linecap="round" stroke-linejoin="round"/>
</svg>
