<svg width="30" height="26" viewBox="0 0 30 26" fill="none" xmlns="http://www.w3.org/2000/svg">
<path fill-rule="evenodd" clip-rule="evenodd" d="M20.0899 9.69335C20.0899 10.9019 19.552 12.0609 18.5946 12.9155C17.6372 13.7701 16.3386 14.2502 14.9845 14.2502C13.6305 14.2502 12.3319 13.7701 11.3745 12.9155C10.417 12.0609 9.87915 10.9019 9.87915 9.69335C9.87915 8.48481 10.417 7.32577 11.3745 6.4712C12.3319 5.61663 13.6305 5.13654 14.9845 5.13654C16.3386 5.13654 17.6372 5.61663 18.5946 6.4712C19.552 7.32577 20.0899 8.48481 20.0899 9.69335ZM17.5372 9.69335C17.5372 10.2976 17.2683 10.8771 16.7896 11.3044C16.3108 11.7317 15.6616 11.9718 14.9845 11.9718C14.3075 11.9718 13.6582 11.7317 13.1795 11.3044C12.7008 10.8771 12.4318 10.2976 12.4318 9.69335C12.4318 9.08908 12.7008 8.50956 13.1795 8.08228C13.6582 7.65499 14.3075 7.41494 14.9845 7.41494C15.6616 7.41494 16.3108 7.65499 16.7896 8.08228C17.2683 8.50956 17.5372 9.08908 17.5372 9.69335Z" fill="#009899"/>
<path fill-rule="evenodd" clip-rule="evenodd" d="M14.9844 0.579712C7.23059 0.579712 0.94458 6.19029 0.94458 13.111C0.94458 20.0316 7.23059 25.6422 14.9844 25.6422C22.7382 25.6422 29.0242 20.0316 29.0242 13.111C29.0242 6.19029 22.7382 0.579712 14.9844 0.579712ZM3.49728 13.111C3.49728 15.4919 4.40731 17.6837 5.93255 19.4244C7.0037 18.1689 8.38556 17.1514 9.97019 16.4515C11.5548 15.7515 13.2993 15.388 15.0674 15.3894C16.8126 15.3879 18.5351 15.742 20.1038 16.4247C21.6724 17.1073 23.0458 18.1006 24.1192 19.3287C25.2251 18.0342 25.9697 16.5231 26.2914 14.9207C26.6132 13.3183 26.5027 11.6705 25.9693 10.1137C25.4359 8.55692 24.4948 7.13589 23.2239 5.96819C21.953 4.8005 20.3888 3.9197 18.6608 3.39868C16.9328 2.87767 15.0906 2.73141 13.2867 2.97201C11.4828 3.21261 9.76898 3.83316 8.28712 4.7823C6.80525 5.73144 5.5979 6.98189 4.76498 8.43019C3.93206 9.87849 3.49751 11.483 3.49728 13.111ZM14.9844 23.3638C12.3474 23.3673 9.79001 22.5576 7.74496 21.0717C8.56812 20.0199 9.66374 19.1612 10.9386 18.5685C12.2135 17.9759 13.6299 17.6669 15.0674 17.6678C16.4869 17.6668 17.8862 17.968 19.149 18.5466C20.4119 19.1251 21.5019 19.9643 22.3285 20.9943C20.2676 22.5284 17.668 23.3672 14.9844 23.3638Z" fill="#009899"/>
</svg>
